HIERARCHY
ROOT joint_Root
{
	OFFSET 0.0 0.0 0.0
	CHANNELS 6 Xposition Yposition Zposition Zrotation Xrotation Yrotation 
	JOINT Hips
	{
		OFFSET -17.1583 93.1646 452.98
		CHANNELS 6 Xposition Yposition Zposition Zrotation Xrotation Yrotation 
		JOINT Spine
		{
			OFFSET 15.7357 0.0 0.0
			CHANNELS 6 Xposition Yposition Zposition Zrotation Xrotation Yrotation 
			JOINT Chest
			{
				OFFSET 8.98455 -0.406207 0.0
				CHANNELS 6 Xposition Yposition Zposition Zrotation Xrotation Yrotation 
				JOINT Neck
				{
					OFFSET 16.3773 0.0 0.0
					CHANNELS 6 Xposition Yposition Zposition Zrotation Xrotation Yrotation 
					JOINT Head
					{
						OFFSET 6.45672 0.0 0.0
						CHANNELS 6 Xposition Yposition Zposition Zrotation Xrotation Yrotation 
						End Site
						{
							OFFSET 0.0 0.0 0.0
						}
					}
				}
				JOINT Shoulder_L
				{
					OFFSET 12.9942 -0.242716 4.98039
					CHANNELS 6 Xposition Yposition Zposition Zrotation Xrotation Yrotation 
					JOINT UpperArm_L
					{
						OFFSET 5.34809 0.0 0.0
						CHANNELS 6 Xposition Yposition Zposition Zrotation Xrotation Yrotation 
						JOINT LowerArm_L
						{
							OFFSET 24.3286 1.87007e-05 0.0
							CHANNELS 6 Xposition Yposition Zposition Zrotation Xrotation Yrotation 
							JOINT Hand_L
							{
								OFFSET 22.2916 0.0 0.0
								CHANNELS 6 Xposition Yposition Zposition Zrotation Xrotation Yrotation 
								End Site
								{
									OFFSET 0.0 0.0 0.0
								}
							}
						}
					}
				}
				JOINT Shoulder_R
				{
					OFFSET 12.9945 -0.242716 -4.98039
					CHANNELS 6 Xposition Yposition Zposition Zrotation Xrotation Yrotation 
					JOINT UpperArm_R
					{
						OFFSET -5.34813 0.0 0.0
						CHANNELS 6 Xposition Yposition Zposition Zrotation Xrotation Yrotation 
						JOINT LowerArm_R
						{
							OFFSET -24.3289 0.000322201 0.0
							CHANNELS 6 Xposition Yposition Zposition Zrotation Xrotation Yrotation 
							JOINT Hand_R
							{
								OFFSET -22.2915 -0.000108084 0.0
								CHANNELS 6 Xposition Yposition Zposition Zrotation Xrotation Yrotation 
								End Site
								{
									OFFSET 0.0 0.0 0.0
								}
							}
						}
					}
				}
			}
		}
		JOINT UpperLeg_L
		{
			OFFSET -2.19248 -6.46944 0.0
			CHANNELS 6 Xposition Yposition Zposition Zrotation Xrotation Yrotation 
			JOINT LowerLeg_L
			{
				OFFSET 39.0811 0.0 -1.23785e-05
				CHANNELS 6 Xposition Yposition Zposition Zrotation Xrotation Yrotation 
				JOINT Foot_L
				{
					OFFSET 40.9854 0.0 -1.26872e-05
					CHANNELS 6 Xposition Yposition Zposition Zrotation Xrotation Yrotation 
					JOINT Toes_L
					{
						OFFSET 11.7543 0.0 0.0
						CHANNELS 6 Xposition Yposition Zposition Zrotation Xrotation Yrotation 
						End Site
						{
							OFFSET 0.0 0.0 0.0
						}
					}
				}
			}
		}
		JOINT UpperLeg_R
		{
			OFFSET -2.19251 6.46944 0.0
			CHANNELS 6 Xposition Yposition Zposition Zrotation Xrotation Yrotation 
			JOINT LowerLeg_R
			{
				OFFSET -39.0811 -0.00228153 -0.0401928
				CHANNELS 6 Xposition Yposition Zposition Zrotation Xrotation Yrotation 
				JOINT Foot_R
				{
					OFFSET -40.9854 0.0 0.0
					CHANNELS 6 Xposition Yposition Zposition Zrotation Xrotation Yrotation 
					JOINT Toes_R
					{
						OFFSET -11.7543 0.0 0.0
						CHANNELS 6 Xposition Yposition Zposition Zrotation Xrotation Yrotation 
						End Site
						{
							OFFSET 0.0 0.0 0.0
						}
					}
				}
			}
		}
	}
}
MOTION
Frames:	6
Frame Time:	0.0333333
0.000000 0.000000 0.000000 0.000000 0.000000 -0.000000 -2.005270 92.994000 -2.222460 87.791500 2.508740 5.993060 15.735700 0.000005 -0.000001 87.571800 84.537100 -86.454200 8.984550 -0.406207 -0.000000 3.155970 -0.507326 2.246870 16.377300 -0.000001 -0.000001 3.428950 1.899750 -0.225800 6.456720 -0.000001 -0.000000 -13.361800 1.008100 2.279240 12.994200 -0.242716 4.980390 -93.141600 9.578900 -71.745600 5.348090 -0.000007 -0.000001 -66.836300 35.499900 -6.037020 24.328600 0.000019 0.000005 9.463250 21.645500 -24.317800 22.291600 -0.000001 0.000005 -8.513140 5.076420 5.656880 12.994500 -0.242716 -4.980390 88.018200 5.919580 -71.452300 -5.348130 -0.000001 -0.000004 -65.173000 39.881000 -9.200260 -24.328900 0.000322 -0.000009 0.246871 0.596561 -22.577700 -22.291500 -0.000108 -0.000004 -10.621200 5.084230 5.476210 -2.192480 -6.469440 -0.000000 -171.679000 -10.034700 0.581111 39.081100 -0.000007 -0.000012 0.013281 -0.039186 18.723800 40.985400 -0.000006 -0.000013 -0.597015 16.615300 -68.131400 11.754300 -0.000000 0.000003 -0.001359 0.188009 -8.949840 -2.192510 6.469440 -0.000001 176.936000 9.054330 -176.391000 -39.081100 -0.002282 -0.040193 0.025021 -0.081090 14.975000 -40.985400 0.000008 0.000006 -4.757710 9.060030 -68.007800 -11.754300 -0.000006 -0.000006 -0.009951 0.270942 -5.565840
0.000000 0.000000 0.000000 0.000000 0.000000 -0.000000 -2.009900 92.928900 -1.855790 87.762000 2.564240 6.222970 15.735700 0.000005 -0.000001 87.361100 84.254800 -86.158400 8.984550 -0.406207 -0.000000 3.719530 -0.570785 2.421180 16.377300 -0.000001 -0.000001 2.616700 1.921630 -0.189784 6.456720 -0.000001 -0.000000 -14.157400 1.224580 1.889990 12.994200 -0.242716 4.980390 -93.081500 9.370090 -71.703000 5.348090 -0.000007 -0.000001 -64.075000 36.540700 -7.513870 24.328600 0.000019 0.000005 10.867100 20.953100 -28.230100 22.291600 -0.000001 0.000005 -15.727400 5.081600 5.525960 12.994500 -0.242716 -4.980390 88.208300 5.255450 -71.143700 -5.348130 -0.000001 -0.000004 -63.112100 38.892200 -9.701780 -24.328900 0.000322 -0.000009 -0.471831 -0.836161 -29.084100 -22.291500 -0.000108 -0.000004 -14.544200 5.043770 6.397270 -2.192480 -6.469440 -0.000000 -171.588000 -9.726890 0.907168 39.081100 -0.000007 -0.000012 0.018076 -0.052362 19.045700 40.985400 -0.000006 -0.000013 -0.567080 16.460300 -68.551400 11.754300 -0.000000 0.000003 -0.001380 0.188299 -8.938030 -2.192510 6.469440 -0.000001 176.854000 9.217280 -176.013000 -39.081100 -0.002282 -0.040193 0.025281 -0.080567 15.240900 -40.985400 0.000008 0.000006 -4.744010 9.250670 -68.333100 -11.754300 -0.000006 -0.000006 -0.009525 0.267720 -5.697590
0.000000 0.000000 0.000000 0.000000 0.000000 -0.000000 -2.004780 92.894500 -1.555010 87.758500 2.625810 6.387950 15.735700 0.000005 -0.000001 87.444300 84.006400 -86.184300 8.984550 -0.406207 -0.000000 4.216880 -0.572672 2.538260 16.377300 -0.000001 -0.000001 1.545680 1.876160 -0.243746 6.456720 -0.000001 -0.000000 -15.380400 1.298590 1.715450 12.994200 -0.242716 4.980390 -92.941000 8.768530 -71.375300 5.348090 -0.000007 -0.000001 -58.732600 38.095200 -9.579470 24.328600 0.000019 0.000005 12.862500 17.793600 -36.771300 22.291600 -0.000001 0.000005 -25.764400 5.093100 5.237330 12.994500 -0.242716 -4.980390 88.434300 4.399300 -70.386400 -5.348130 -0.000001 -0.000004 -57.894100 39.705800 -10.541500 -24.328900 0.000322 -0.000009 -2.949920 -3.226440 -42.435400 -22.291500 -0.000108 -0.000004 -18.802900 4.939820 8.609610 -2.192480 -6.469440 -0.000000 -171.514000 -9.588380 1.250710 39.081100 -0.000007 -0.000012 0.023090 -0.066653 19.107400 40.985400 -0.000006 -0.000013 -0.558507 16.449900 -68.776600 11.754300 -0.000000 0.000003 -0.001435 0.189033 -8.908200 -2.192510 6.469440 -0.000001 176.674000 9.496510 -175.645000 -39.081100 -0.002282 -0.040193 0.020415 -0.062446 15.302000 -40.985400 0.000008 0.000006 -5.076230 9.613270 -68.405300 -11.754300 -0.000006 -0.000006 -0.009701 0.269057 -5.642910
0.000000 0.000000 0.000000 0.000000 0.000000 -0.000000 -2.007390 92.918100 -1.291000 87.780800 2.615780 5.925090 15.735700 0.000005 -0.000001 87.380000 84.189900 -86.097800 8.984550 -0.406207 -0.000000 3.849820 -0.574218 2.580980 16.377300 -0.000001 -0.000001 0.761564 1.859600 -0.303781 6.456720 -0.000001 -0.000000 -16.858600 1.289360 1.366410 12.994200 -0.242716 4.980390 -92.856400 8.070080 -70.433400 5.348090 -0.000007 -0.000001 -50.191300 37.600700 -11.881800 24.328600 0.000019 0.000005 17.316800 14.463200 -51.301500 22.291600 -0.000001 0.000005 -35.029900 5.187800 2.980710 12.994500 -0.242716 -4.980390 88.544100 3.854730 -69.289200 -5.348130 -0.000001 -0.000004 -49.618200 38.460700 -11.360600 -24.328900 0.000322 -0.000009 -2.571420 -1.384090 -61.880400 -22.291500 -0.000108 -0.000004 -23.814900 4.841690 10.535100 -2.192480 -6.469440 -0.000000 -171.477000 -10.159100 1.163520 39.081100 -0.000007 -0.000012 0.023655 -0.069803 18.721200 40.985400 -0.000006 -0.000013 -0.536855 16.919500 -68.717200 11.754300 -0.000000 0.000003 -0.001693 0.192439 -8.769720 -2.192510 6.469440 -0.000001 176.525000 10.077100 -175.765000 -39.081100 -0.002282 -0.040193 0.013355 -0.037690 14.894900 -40.985400 0.000008 0.000006 -5.596700 10.208400 -67.895900 -11.754300 -0.000006 -0.000006 -0.010050 0.271679 -5.535680
0.000000 0.000000 0.000000 0.000000 0.000000 -0.000000 -2.006950 93.089000 -1.055700 87.775600 2.672680 4.249490 15.735700 0.000005 -0.000001 86.448000 85.197700 -85.123300 8.984550 -0.406207 -0.000000 1.829260 -0.663279 2.657590 16.377300 -0.000001 -0.000001 0.470154 1.823830 -0.411563 6.456720 -0.000001 -0.000000 -17.436900 1.395630 0.752971 12.994200 -0.242716 4.980390 -92.617500 6.981790 -69.387700 5.348090 -0.000007 -0.000001 -40.838000 33.087500 -14.080000 24.328600 0.000019 0.000005 18.996000 9.154600 -65.208000 22.291600 -0.000001 0.000005 -36.725100 5.208310 2.507520 12.994500 -0.242716 -4.980390 88.724300 3.146330 -67.913200 -5.348130 -0.000001 -0.000004 -39.976100 33.188400 -13.007600 -24.328900 0.000322 -0.000009 -1.765280 -0.254057 -81.643500 -22.291500 -0.000108 -0.000004 -26.977400 4.792340 11.463700 -2.192480 -6.469440 -0.000000 -171.580000 -11.382700 0.447849 39.081100 -0.000007 -0.000012 0.013232 -0.042963 17.118500 40.985400 -0.000006 -0.000013 -0.626046 17.870600 -68.149000 11.754300 -0.000000 0.000003 -0.001700 0.192522 -8.766370 -2.192510 6.469440 -0.000001 176.415000 11.594200 -176.329000 -39.081100 -0.002282 -0.040193 -0.000167 0.015304 12.884900 -40.985400 0.000008 0.000006 -6.963840 11.630400 -66.174800 -11.754300 -0.000006 -0.000006 -0.009897 0.270536 -5.582450
0.000000 0.000000 0.000000 0.000000 0.000000 -0.000000 -1.970100 93.388000 -0.946557 87.766200 2.856170 1.387950 15.735700 0.000005 -0.000001 82.784700 86.827300 -81.379100 8.984550 -0.406207 -0.000000 -1.458130 -0.909904 2.798820 16.377300 -0.000001 -0.000001 -0.053492 1.801260 -0.546353 6.456720 -0.000001 -0.000000 -16.813100 1.814250 -0.065842 12.994200 -0.242716 4.980390 -92.205500 5.646780 -68.623400 5.348090 -0.000007 -0.000001 -32.646600 23.432300 -16.486800 24.328600 0.000019 0.000005 17.794000 5.228530 -74.154500 22.291600 -0.000001 0.000005 -33.066100 5.188550 2.994430 12.994500 -0.242716 -4.980390 89.199400 1.863460 -66.738500 -5.348130 -0.000001 -0.000004 -30.854900 22.554900 -16.234000 -24.328900 0.000322 -0.000009 -6.764790 0.755764 -96.255600 -22.291500 -0.000108 -0.000004 -26.469300 4.760200 12.062700 -2.192480 -6.469440 -0.000000 -172.055000 -12.816800 -0.946033 39.081100 -0.000007 -0.000012 0.002044 -0.008023 14.296100 40.985400 -0.000006 -0.000013 -0.914475 18.907500 -67.339500 11.754300 -0.000000 0.000003 -0.002117 0.197803 -8.551580 -2.192510 6.469440 -0.000001 176.558000 13.112400 -176.999000 -39.081100 -0.002282 -0.040193 -0.001299 0.031231 8.451900 -40.985400 0.000008 0.000006 -9.805010 12.853200 -62.745000 -11.754300 -0.000006 -0.000006 -0.009970 0.271082 -5.560120
